<?xml version="1.0" encoding="UTF-8" standalone="no"?>
<!-- Created with Inkscape (http://www.inkscape.org/) -->

<svg
   version="1.1"
   id="svg5777"
   width="32"
   height="32"
   viewBox="0 0 32 32"
   sodipodi:docname="favicon.svg"
   inkscape:version="1.1 (c68e22c387, 2021-05-23)"
   inkscape:export-filename="C:\xampp2\htdocs\andresfgiraldoh\assets\img\favicon.png"
   inkscape:export-xdpi="96"
   inkscape:export-ydpi="96"
   xmlns:inkscape="http://www.inkscape.org/namespaces/inkscape"
   xmlns:sodipodi="http://sodipodi.sourceforge.net/DTD/sodipodi-0.dtd"
   xmlns="http://www.w3.org/2000/svg"
   xmlns:svg="http://www.w3.org/2000/svg">
  <defs
     id="defs5781" />
  <sodipodi:namedview
     id="namedview5779"
     pagecolor="#ffffff"
     bordercolor="#666666"
     borderopacity="1.0"
     inkscape:pageshadow="2"
     inkscape:pageopacity="0.0"
     inkscape:pagecheckerboard="0"
     showgrid="false"
     inkscape:zoom="13"
     inkscape:cx="7.8846154"
     inkscape:cy="20.730769"
     inkscape:window-width="1920"
     inkscape:window-height="1017"
     inkscape:window-x="-8"
     inkscape:window-y="-8"
     inkscape:window-maximized="1"
     inkscape:current-layer="g5783" />
  <g
     inkscape:groupmode="layer"
     inkscape:label="Image"
     id="g5783">
    <g
       id="g5799"
       transform="matrix(0.46534485,0,0,0.5658831,254.08977,-227.73886)"
       inkscape:export-filename="C:\xampp2\htdocs\andresfgiraldoh\assets\img\favicon.png"
       inkscape:export-xdpi="96"
       inkscape:export-ydpi="96">
      <g
         id="g6104"
         transform="matrix(0.12106458,0,0,0.11095924,-97.480395,444.60342)">
        <path
           style="fill:#b9b9b9;fill-opacity:1;stroke-width:0.827586"
           d="m -3244.2794,125.24322 c -4.7528,-1.48601 -17.6805,-8.48499 -27.7901,-15.04541 -10.1918,-6.61377 -19.1426,-13.204031 -40.3355,-29.698114 -8.8759,-6.907937 -16.9345,-12.98232 -17.9081,-13.498635 -1.4552,-0.771773 -1.1247,0.193805 1.8584,5.428511 1.9957,3.501997 3.8686,7.646921 4.1621,9.210952 0.8619,4.594378 -0.3867,18.514016 -2.182,24.326796 -2.0925,6.77466 -3.2089,7.8126 -6.8021,6.32423 -4.5043,-1.86572 -15.0193,-10.31022 -21.7583,-17.473843 -13.9368,-14.814836 -20.3315,-26.520406 -36.0758,-66.036961 -5.6099,-14.080229 -5.4928,-14.574 -3.239,13.655173 1.5277,19.133752 1.5312,19.937934 0.097,21.931035 -0.8187,1.137931 -2.4491,2.184231 -3.6232,2.325103 -1.3997,0.167951 -14.4787,-5.359489 -37.9871,-16.054039 -42.9956,-19.559752 -80.3556,-36.99768 -83.0541,-38.765818 -1.1505,-0.753832 -2.1465,-2.4012248 -2.4073,-3.9817407 -0.2447,-1.4827531 -1.1992,-22.6200583 -2.121,-46.9717823 l -1.6761,-44.275863 -5.9866,-5.34024 c -23.9364,-21.351824 -48.8393,-48.360864 -68.0534,-73.809124 -45.4042,-60.13591 -76.8575,-136.26926 -81.1548,-196.43685 -0.8551,-11.97375 -0.1279,-12.27 25.3319,-10.31979 85.316,6.53515 167.7978,34.42889 229.5098,77.61572 19.4505,13.61174 31.2593,23.4127 47.6902,39.58144 l 10.3448,10.1798 45.8512,2.08018 c 34.6985,1.5742 46.2732,2.35722 47.5862,3.21919 2.2525,1.47874 12.5214,24.57063 45.9485,103.32484 8.3691,19.71772 8.9318,22.53559 4.8849,24.46533 -1.8651,0.88935 -7.556,0.51823 -36.2884,-2.36646 -23.9513,-2.40467 -34.8514,-3.19871 -36.6846,-2.67236 -2.5667,0.73695 -2.391,0.87893 11.047,8.926 34.216,20.489588 64.3737,41.782528 81.0673,57.237825 9.2544,8.568 17.4134,21.404483 17.4148,27.398872 0,6.004378 -5.7108,6.737644 -27.6415,3.548243 -15.9042,-2.312979 -28.8602,-2.618334 -30.7563,-0.724899 -0.9278,0.926549 -1.1663,1.959442 -0.7531,3.261401 0.3326,1.047973 11.4673,12.727432 24.7438,25.954354 27.6995,27.59616 36.8905,38.827274 36.8905,45.078886 0,2.054855 -2.9981,4.211437 -5.8548,4.211437 -4.4403,0 -19.5637,-4.447374 -39.8694,-11.724546 -21.2136,-7.602522 -27.1692,-8.941722 -28.828,-6.482351 -2.0488,3.037539 0.4785,11.357537 9.1755,30.206897 10.04,21.759873 13.9758,33.478651 14.6539,43.631511 0.6658,9.97045 -0.7605,11.26486 -9.4274,8.5551 z m -160.8275,-76.393508 c -0.017,-4.291498 -3.9416,-54.9458239 -4.272,-55.1369136 -0.1471,-0.085101 -2.6742,-1.2606538 -5.6156,-2.6123503 -17.6773,-8.1233381 -59.7366,-34.7458681 -85.9806,-54.4236011 -6.5515,-4.912311 -12.0771,-8.766207 -12.2791,-8.564193 -0.202,0.202006 0.2867,17.325857 1.086,38.053002 l 1.4533,37.6857108 11.2239,5.329498 c 6.1732,2.9312192 22.2101,10.3718482 35.6377,16.5347172 13.4276,6.162869 31.6759,14.551647 40.5517,18.641727 8.8759,4.090089 16.6035,7.472367 17.1724,7.51618 0.6598,0.05081 1.0301,-1.044389 1.0223,-3.023777 z m 47.5666,-15.04195 c 0.6887,-1.331694 1.8437,-5.849438 2.5668,-10.039424 1.3622,-7.893526 1.1855,-11.809663 -0.95,-21.0565574 -1.7063,-7.3884001 -1.5585,-10.3448277 0.517,-10.3448277 3.6,0 14.3182,6.70053525 38.6292,24.1491481 16.5821,11.901476 22.2016,15.43435 25.0619,15.756074 3.699,0.416053 2.6583,-4.764571 -3.694,-18.38798 -9.6365,-20.6670297 -11.2228,-24.531915 -11.4224,-27.829093 l -0.1939,-3.205391 3.3103,0.06612 c 2.3446,0.04684 7.4463,2.04067 17.4865,6.833942 7.7968,3.7222839 15.9899,7.1125901 18.2069,7.5340053 8.489,1.6136773 7.7918,-2.6460083 -2.6918,-16.4454043 -8.0186,-10.554819 -9.4154,-13.080207 -9.4154,-17.023151 0,-8.132979 6.7162,-12.950276 26.2656,-18.839412 l 9.3001,-2.801595 -2.2656,-2.101547 c -3.5467,-3.289879 -13.4433,-9.650376 -28.7483,-18.476384 -16.7736,-9.672853 -41.9815,-22.746585 -43.8585,-22.746585 -1.2652,0 -16.2204,11.360389 -17.34,13.171909 -0.289,0.467669 0.016,1.698761 0.6775,2.735752 1.1138,1.745727 4.6589,22.002861 4.6589,26.62181 0,2.919194 -14.3448,24.33619 -16.968,25.333539 -2.8735,1.092522 -4.7731,0.185802 -12.4139,-5.925542 -3.64,-2.911332 -8.1756,-6.504687 -10.0791,-7.98523 l -3.461,-2.691898 -4.8695,6.438794 c -2.6782,3.541341 -6.0918,8.234872 -7.5857,10.430069 l -2.7162,3.991267 2.6873,10.905285 c 5.4881,22.2712641 11.2899,37.48037 17.7518,46.535951 5.8701,8.226174 9.2692,9.813799 11.5535,5.396351 z m -38.7059,-72.475292 c 1.873,-2.731035 5.6265,-7.912022 8.3411,-11.513305 l 4.9355,-6.547788 -31.5453,-24.930116 -31.5453,-24.930111 -10.609,-18.17727 c -12.7281,-21.80807 -13.2145,-22.82478 -12.1984,-25.49739 0.4224,-1.11099 4.9207,-8.01933 9.9962,-15.35188 9.8923,-14.29127 10.8342,-15.07298 16.0775,-13.34254 1.9811,0.65382 18.1972,14.58054 49.7048,42.68755 l 46.7644,41.717144 6.6814,-5.574384 c 9.9152,-8.27241 20.1223,-15.35843 27.8345,-19.32334 3.7686,-1.93751 6.852,-3.75947 6.852,-4.0488 0,-2.20073 -12.233,-27.94553 -19.2666,-40.54708 -34.5269,-61.85954 -84.4725,-109.90601 -149.5609,-143.87385 -55.5162,-28.97236 -125.6077,-47.61099 -191.0587,-50.80606 l -4.4381,-0.21665 0.5371,5.37931 c 1.7673,17.70112 7.3773,42.25256 14.6537,64.12973 23.9519,72.01352 69.1722,138.379 132.306,194.172793 29.2411,25.84157 68.8161,53.260602 104.6896,72.532942 l 9.1035,4.890645 4.1698,-7.932016 c 2.2934,-4.362613 5.7022,-10.1665 7.5752,-12.897534 z m -135.0554,-144.11244 c -23.0399,-3.54462 -43.0554,-25.29164 -44.7828,-48.65701 -0.8797,-11.89872 4.0304,-25.6089 11.7051,-32.68318 4.3267,-3.98815 13.231,-8.59059 20.0274,-10.35174 6.4761,-1.67812 18.0974,-1.66041 24.9974,0.0381 17.76,4.3718 32.5691,18.44868 36.9012,35.0766 5.3892,20.68533 -9.0091,47.6474 -29.2611,54.79378 -4.6061,1.62536 -14.6628,2.54104 -19.5872,1.78344 z m 15.01,-22.58203 c 8.907,-4.04457 14.6842,-13.33144 14.7124,-23.65036 0.012,-4.30479 -0.4519,-6.7565 -1.8049,-9.543 -5.5101,-11.34793 -20.6936,-18.87575 -33.5165,-16.61704 -9.8374,1.73282 -15.889,7.79398 -18.0204,18.04896 -2.5601,12.31797 6.108,26.39725 19.4815,31.64309 5.538,2.1723 14.5026,2.22771 19.1479,0.11835 z m 168.4006,153.719217 3.4723,-5.113192 -3.0231,-2.54198 c -1.6628,-1.398091 -20.5174,-17.252334 -41.8991,-35.231645 l -38.8758,-32.68966 -9.201,-18.10493 c -7.572,-14.89929 -9.3863,-17.90319 -10.2468,-16.96552 -0.5751,0.62668 -3.0144,4.03234 -5.4206,7.56813 l -4.3749,6.42871 9.8546,17.12864 9.8546,17.12865 42.6039,33.720717 c 23.4322,18.546389 42.8694,33.735236 43.1938,33.752988 0.3244,0.01771 2.1524,-2.268654 4.0621,-5.080908 z m 2.9754,-23.91648 c -0.3767,-2.80853 -1.2625,-4.104563 -5.2814,-7.727454 -5.3208,-4.796532 -74.2779,-66.157733 -76.6649,-68.220003 -1.3974,-1.20726 -1.4423,-1.16056 -0.7125,0.74087 0.4284,1.11614 2.2167,5.06936 3.9741,8.78493 l 3.1953,6.75557 29.7931,25.12769 c 38.2392,32.251255 45.0574,37.912888 45.6576,37.912888 0.2702,0 0.2877,-1.518521 0.039,-3.374491 z m 110.0686,-45.659997 c -3.7627,-9.44313 -45.0098,-104.83697 -45.6119,-105.48863 -0.3541,-0.38321 -74.4345,-3.54029 -74.7875,-3.18721 -0.2066,0.2066 1.8238,3.09664 4.5121,6.4223 10.6506,13.1759 22.5627,30.49998 33.1791,48.25354 7.6736,12.8322 18.8387,35.12808 21.7576,43.44828 1.038,2.95862 2.0277,5.55349 2.1994,5.76638 0.3851,0.47753 49.5878,5.58081 55.1438,5.7195 2.9129,0.0727 3.9061,-0.18448 3.6074,-0.93416 z"
           id="path6118" />
        <path
           style="fill:#a3a3a3;fill-opacity:1;stroke-width:0.827586"
           d="m -3245.2348,124.78751 c -13.4661,-4.84459 -33.0756,-17.79479 -67.5642,-44.61966 -10.0029,-7.780146 -18.4964,-14.145724 -18.8745,-14.145724 -0.3781,0 0.2942,1.582759 1.494,3.517242 1.1998,1.934482 3.1358,5.528218 4.3023,7.986074 1.9951,4.203948 2.0907,4.988831 1.613,13.24138 -0.7307,12.622688 -3.6486,22.427718 -6.6744,22.427718 -2.5042,0 -14.5476,-8.93529 -21.596,-16.022557 -8.2145,-8.259823 -15.6235,-18.145862 -20.9055,-27.89458 -3.163,-5.837892 -15.6005,-34.950248 -20.1296,-47.117346 -2.6921,-7.23221 -2.848,-5.332627 -1.2443,15.159707 2.0128,25.719071 2.009,26.131275 -0.2597,27.968351 -1.0607,0.858877 -2.6096,1.561597 -3.4421,1.561597 -1.8427,0 -74.6322,-32.987048 -110.2432,-49.960477 -8.3009,-3.956483 -11.5795,-5.94106 -12.0933,-7.3200336 -0.3876,-1.040549 -1.4894,-22.3746624 -2.4483,-47.4091454 l -1.7435,-45.517242 -6.8529,-6.120629 c -11.8682,-10.600105 -38.7601,-38.120415 -48.4867,-49.619845 -55.2749,-65.34929 -90.6586,-141.05864 -99.0708,-211.9786 -1.6151,-13.61686 -1.5679,-15.05057 0.5716,-17.34706 1.7665,-1.89607 1.9953,-1.92035 13.0345,-1.38285 28.0931,1.36784 57.0506,5.37967 85.3054,11.81836 81.2742,18.52074 150.0979,54.35085 202.003,105.16432 l 11.2444,11.0079 45.7352,2.07208 c 25.1543,1.13966 46.3961,2.4258 47.2038,2.85812 1.9396,1.038 4.2328,5.8797 19.604,41.39027 19.4613,44.95968 34.2096,80.2319 34.2096,81.81616 0,2.71072 -0.9491,4.33998 -2.9774,5.11114 -1.2614,0.47959 -13.5832,-0.4363 -35.7755,-2.6592 -20.4725,-2.05064 -35.0728,-3.16161 -36.9417,-2.81099 l -3.0904,0.57976 16.427,9.93784 c 54.6725,33.075241 84.5767,56.978662 93.4382,74.688212 6.9382,13.865852 2.803,15.904594 -24.4595,12.059074 -16.3879,-2.311606 -29.1657,-2.589617 -31.0854,-0.676345 -0.9353,0.932118 -1.1723,1.966916 -0.7585,3.310345 0.3312,1.074893 10.9211,12.1957321 23.5331,24.712974 34.317,34.058979 42.7456,45.75792 35.6212,49.442326 -4.1398,2.140899 -14.0193,-0.349871 -45.0834,-11.366251 -21.4837,-7.618834 -24.3212,-8.277443 -26.4575,-6.141129 -3.0756,3.075625 -1.8314,6.929719 13.6026,42.13402 6.2747,14.312433 9.0526,23.617414 9.6901,32.458784 0.7076,9.81194 -0.9833,11.06458 -10.3747,7.68591 z m -159.5009,-74.696418 c -0.2006,-1.479311 -1.1128,-13.303449 -2.0272,-26.275863 -2.3636,-33.5308637 -1.3412,-29.6934375 -8.8061,-33.0526016 -17.3198,-7.7939424 -67.4695,-39.9408004 -90.6981,-58.1391484 l -7.2414,-5.673236 0.022,4.777324 c 0.012,2.62752 0.5608,17.625592 1.2196,33.329041 0.6589,15.703448 1.2077,30.8223477 1.2197,33.5975588 l 0.022,5.0458345 12.2069,5.827407 c 6.7137,3.2050757 21.1448,9.9361407 32.0689,14.9579257 51.5068,23.67744 61.2811,28.139148 61.8101,28.21445 0.3127,0.04452 0.4046,-1.129382 0.204,-2.608692 z m 47.3972,-16.396577 c 0.5571,-1.166392 1.654,-5.738185 2.4374,-10.15954 1.4063,-7.936965 1.4,-8.17363 -0.4933,-18.6789516 -1.0548,-5.85207732 -1.6606,-11.0561463 -1.3464,-11.564607 1.0691,-1.7298704 3.5263,-0.9299338 11.0198,3.5875614 7.9329,4.7824056 13.766,8.7865325 33.7181,23.1459972 26.796,19.284919 28.1868,17.85965 13.2612,-13.5890564 -6.6191,-13.9467312 -9.1502,-20.7997906 -8.4022,-22.7491696 0.9217,-2.401887 5.1224,-1.207192 18.9019,5.375809 18.4285,8.803995 26.3197,10.80747361 26.3197,6.6822294 0,-2.4297269 -3.6797,-8.6073434 -9.7965,-16.4468364 -6.9848,-8.951917 -8.4104,-11.587746 -8.4104,-15.550841 0,-8.088729 8.7053,-13.969391 28.7764,-19.439214 l 6.8453,-1.865504 -1.8273,-1.945059 c -6.5358,-6.957021 -69.0455,-42.229883 -73.5306,-41.491703 -0.8617,0.14183 -5.2627,3.199777 -9.7799,6.795432 l -8.213,6.537567 1.5598,2.643658 c 1.0043,1.702179 2.1952,7.101675 3.344,15.161835 l 1.7842,12.518177 -7.7591,11.698427 c -7.9316,11.958497 -9.9067,13.785509 -13.4067,12.401148 -1.0241,-0.405087 -5.9586,-3.986706 -10.9655,-7.959153 -5.0069,-3.972447 -9.5267,-7.55266 -10.044,-7.956033 -1.0033,-0.782318 -6.0538,5.184041 -12.7098,15.014557 l -3.6267,5.356353 2.6916,10.605575 c 6.5806,25.9293608 13.2527,42.116384 20.6633,50.130705 4.5793,4.952309 7.211,5.461944 8.9887,1.740637 z m -39.1291,-71.85418 c 2.0555,-3.091821 5.9586,-8.518751 8.6738,-12.059852 l 4.9365,-6.438347 -2.2221,-1.823711 c -1.2222,-1.003042 -15.469,-12.286734 -31.6595,-25.074885 l -29.4372,-23.25118 -11.435,-19.72305 c -6.5892,-11.36495 -11.4453,-20.64142 -11.4593,-21.89018 -0.035,-3.08919 18.7839,-30.36496 21.4035,-31.02243 1.0629,-0.26678 3.2141,-0.0622 4.7805,0.45484 1.8596,0.61373 19.1179,15.44815 49.7351,42.75002 l 46.8873,41.810145 4.7226,-4.003308 c 11.6577,-9.882167 24.6749,-18.872317 32.2398,-22.265957 2.3897,-1.07201 4.3448,-2.28722 4.3448,-2.70047 0,-2.73833 -13.1796,-30.252 -21.0573,-43.95916 -23.0507,-40.10804 -50.9053,-72.6006 -86.8809,-101.34726 -38.4705,-30.7402 -88.3018,-55.95313 -139.9238,-70.79657 -34.7113,-9.98092 -73.3297,-17.03901 -101.7931,-18.60421 -5.0069,-0.27533 -10.3699,-0.69704 -11.9176,-0.93713 l -2.8142,-0.43654 0.5561,6.06085 c 3.3208,36.19365 20.1696,87.38141 41.9626,127.48548 29.0954,53.54198 66.999,99.27894 116.2195,140.237925 28.5644,23.770014 58.4477,43.782323 97.1997,65.09285 l 5.344,2.938792 3.9285,-7.437592 c 2.1607,-4.090668 5.6103,-9.96725 7.6657,-13.05907 z m -137.7305,-145.385175 c -18.2257,-3.92854 -34.6905,-19.50895 -40.223,-38.06251 -2.0357,-6.82694 -2.0383,-19.16491 -0.01,-25.19811 3.945,-11.70653 8.9737,-17.91577 18.7142,-23.10741 24.4392,-13.02593 56.5921,-3.44649 69.4842,20.70167 9.2696,17.36296 5.0697,38.75692 -10.7132,54.57211 -7.0673,7.08176 -12.6969,10.20063 -20.7796,11.51208 -6.7553,1.09607 -9.8138,1.01852 -16.4774,-0.41783 z m 18.3838,-22.07698 c 12.0251,-5.04776 17.9521,-21.51549 12.0969,-33.61064 -4.9708,-10.26839 -19.6636,-17.84219 -31.6561,-16.31801 -10.1784,1.29362 -16.6062,7.03112 -19.1942,17.13282 -2.3295,9.09313 0.4114,18.11033 7.6977,25.32456 9.2633,9.17167 20.5413,11.88488 31.0557,7.47127 z m 167.8664,154.062921 c 1.8784,-2.766116 3.1791,-5.279909 2.8904,-5.586207 -0.2887,-0.306298 -19.2221,-16.384494 -42.0741,-35.729321 l -41.5493,-35.172413 -8.6897,-17.11437 c -4.7793,-9.4129 -8.9251,-17.34496 -9.213,-17.6268 -0.4884,-0.47825 -9.3953,11.56427 -10.3034,13.93068 -0.2267,0.59079 3.9847,8.67894 9.3587,17.97366 l 9.7709,16.8995 42.6072,33.714766 c 23.434,18.543129 42.8727,33.720406 43.1971,33.727292 0.3244,0.0066 2.1267,-2.250671 4.0052,-5.016787 z m 3.2568,-23.589567 c -0.5029,-3.313581 -1.2423,-4.391743 -5.8688,-8.556703 -28.6377,-25.781141 -77.204,-68.706961 -77.4532,-68.457771 -0.1734,0.17341 1.4675,4.07179 3.6464,8.66307 l 3.9617,8.34778 19.862,16.76445 c 26.4389,22.315585 55.9892,47.030454 56.2319,47.030454 0.1075,0 -0.064,-1.706077 -0.38,-3.79128 z m 107.5834,-51.407244 c -9.869,-23.72433 -42.6429,-99.45738 -43.3443,-100.15876 -0.2236,-0.22364 -69.394,-3.52875 -74.0062,-3.53618 -1.7285,-0.002 -1.4394,0.58195 2.9649,5.99691 21.7258,26.71136 46.0296,66.97306 55.2882,91.59065 l 2.67,7.09901 29.2547,2.94475 c 16.0901,1.61962 29.3906,2.84924 29.5566,2.73251 0.1661,-0.11673 -0.9066,-3.11773 -2.3839,-6.66889 z"
           id="path6116" />
        <path
           style="fill:#8c8c8c;fill-opacity:1;stroke-width:0.827586"
           d="m -3245.6381,124.40827 c -12.2552,-4.32484 -33.4339,-18.12614 -62.1692,-40.513244 -19.0891,-14.871981 -23.5955,-18.200293 -24.0184,-17.739576 -0.1416,0.154262 1.4701,3.241755 3.5816,6.861104 l 3.8391,6.580626 -0.059,9.143512 c -0.061,9.360919 -1.8275,18.855078 -4.2111,22.632938 -0.8941,1.41705 -1.6647,1.76532 -3.0168,1.36339 -4.2237,-1.25555 -13.1305,-7.94969 -20.8563,-15.675056 -9.0843,-9.083752 -16.3723,-19.156511 -22.1589,-30.626045 -4.1851,-8.295145 -13.5163,-30.242036 -18.3846,-43.240486 -1.7471,-4.66502 -3.2471,-8.389158 -3.3331,-8.275862 -0.086,0.113305 0.6402,10.771382 1.6139,23.684616 1.9076,25.298218 1.825,26.344138 -2.192,27.756836 -2.3806,0.837194 -10.7443,-2.784058 -76.3672,-33.065115 -42.3935,-19.562111 -46.4675,-21.642571 -47.4351,-24.2236225 -0.4583,-1.222411 -1.591,-22.5191255 -2.5171,-47.3260225 l -1.6838,-45.103449 -3.9751,-3.646808 c -39.244,-36.003076 -63.7507,-64.116726 -87.3575,-100.215266 -35.9493,-54.97213 -59.8305,-119.16815 -63.9138,-171.80943 l -0.5844,-7.53357 2.3541,-1.86737 c 2.2542,-1.78807 2.7934,-1.8444 12.699,-1.3264 75.5285,3.94969 151.1805,25.49671 212.3256,60.47413 11.9291,6.82392 32.3622,20.53169 43.8123,29.39194 12.8722,9.96075 20.083,16.2768 32.3392,28.3265 l 9.9943,9.82598 45.0401,2.00965 c 24.7721,1.10531 45.8809,2.20729 46.9084,2.44884 1.43,0.33617 3.0044,2.81309 6.7122,10.55981 8.128,16.98221 48.111,111.16126 48.0829,113.25841 -0.044,3.29047 -2.1348,5.24179 -5.5817,5.20963 -1.6949,-0.0158 -17.624,-1.47925 -35.398,-3.25207 -23.5284,-2.34676 -33.0468,-3.00899 -35.002,-2.43519 -2.6813,0.78686 -2.6649,0.80038 10.3089,8.53205 47.5921,28.362157 80.2185,52.910905 92.5078,69.604652 3.6671,4.981498 7.1224,12.639583 7.1224,15.7859 0,0.893272 -0.7449,2.368958 -1.6552,3.279303 -2.2254,2.225395 -9.9174,2.202024 -25.2414,-0.07672 -15.0979,-2.2451 -29.5889,-2.537826 -31.4982,-0.636281 -0.924,0.920176 -1.175,1.98413 -0.7812,3.310345 0.3191,1.074894 10.541,11.8233185 22.7153,23.8853876 22.9323,22.7210234 33.3365,34.3974954 36.8795,41.3892914 3.6112,7.126237 2.5799,9.093468 -4.7671,9.093468 -6.2396,0 -15.4067,-2.607327 -39.6757,-11.284726 -21.4711,-7.676996 -24.3592,-8.414905 -27.1307,-6.931639 -1.6519,0.884028 -1.8217,1.484276 -1.4891,5.262274 0.4104,4.66171 2.5573,10.424433 9.7594,26.195495 10.7863,23.620097 14.8844,36.43881 14.8844,46.55822 0,7.03071 -1.6532,7.68734 -11.0262,4.37965 z m -159.1616,-75.972351 c -0.2272,-2.389655 -1.2567,-15.683173 -2.2878,-29.541153 -1.4704,-19.76094681 -2.1271,-25.2781662 -3.0445,-25.5756917 -2.6687,-0.8655559 -19.3585,-9.9008523 -30.5489,-16.5381433 -20.2332,-12.000795 -52.8022,-34.066503 -67.6552,-45.836881 l -5.1724,-4.098927 0.022,5.657471 c 0.012,3.1116 0.5608,18.505738 1.2196,34.209186 0.6589,15.703449 1.2077,30.4496778 1.2197,32.76940195 l 0.022,4.21767725 13.862,6.6517488 c 7.6242,3.658453 24.4759,11.5068 37.4483,17.440759 12.9724,5.933959 30.4759,13.953029 38.8966,17.820149 8.4206,3.867129 15.5627,7.062216 15.8712,7.100185 0.3085,0.03799 0.375,-1.886127 0.1479,-4.275782 z m 47.5361,-14.897777 c 0.5984,-1.252394 1.6684,-5.348946 2.3777,-9.103448 1.4063,-7.44312 1.1759,-12.157738 -1.1453,-23.4342293 -1.0812,-5.2526814 -1.1963,-7.1765132 -0.4728,-7.9000387 2.1695,-2.1695504 12.1252,3.763349 40.6157,24.20424 15.6478,11.226712 22.7811,15.614012 25.3868,15.614012 2.3119,0 1.4055,-5.273206 -2.3646,-13.755774 -1.9983,-4.496392 -5.861,-13.0166406 -8.5837,-18.93388204 -9.4281,-20.49034796 -8.1253,-21.58316696 13.2475,-11.11260396 28.4819,13.9532523 33.0022,11.36959431 16.7561,-9.577051 -3.5303,-4.551725 -6.9282,-9.474249 -7.5509,-10.938936 -4.4066,-10.365774 4.1838,-17.915752 27.6443,-24.296317 l 6.8453,-1.861722 -1.8639,-1.983989 c -4.9594,-5.279089 -35.6571,-23.503059 -60.8078,-36.099153 l -12.5674,-6.29402 -7.6227,5.978453 c -11.2916,8.855926 -11.2164,8.78592 -10.1941,9.489592 1.8864,1.298449 2.7028,4.288171 4.5171,16.541288 l 1.866,12.602806 -7.7541,11.690897 c -7.6577,11.54558 -9.8979,13.71888 -12.9807,12.593222 -0.8005,-0.292304 -5.7382,-3.878831 -10.9727,-7.970078 -5.2345,-4.091238 -9.9416,-7.76342 -10.4602,-8.160397 -0.9856,-0.754386 -5.7571,4.834097 -12.7216,14.899796 l -3.6158,5.225926 2.3389,9.670626 c 6.0134,24.8628003 13.6741,43.584075 21.0487,51.439002 4.6098,4.910036 7.1905,5.330466 9.0342,1.471779 z m -38.1657,-73.033258 c 2.7656,-4.096552 6.7331,-9.633212 8.8167,-12.303692 l 3.7884,-4.855415 -6.3766,-5.12539 c -3.5072,-2.818966 -17.7463,-14.094745 -31.6425,-25.057283 l -25.266,-19.931904 -11.4042,-19.74247 c -6.2724,-10.85836 -11.4372,-20.71178 -11.4773,-21.89648 -0.092,-2.70777 17.9081,-29.19821 20.7232,-30.49846 4.1471,-1.91549 7.2338,0.0602 25.44,16.28421 9.5917,8.54736 30.7132,27.38132 46.9368,41.85321 l 29.4973,26.312539 8.5751,-6.949279 c 10.5315,-8.5347 19.4126,-14.57969 27.0548,-18.41505 3.1938,-1.60284 5.8068,-3.23429 5.8068,-3.62546 0,-1.64098 -6.5562,-16.27432 -12.8141,-28.6008 -7.2651,-14.31028 -11.3086,-21.24369 -20.995,-36 -55.8729,-85.11698 -148.8081,-142.38067 -265.7771,-163.76344 -14.8143,-2.70817 -36.5642,-5.53411 -48.4138,-6.29037 -4.0965,-0.26145 -9.4034,-0.67792 -11.7931,-0.9255 l -4.3448,-0.45014 2e-4,3.163 c 4e-4,8.30444 5.4665,35.71899 10.7786,54.05955 27.6411,95.43193 96.4027,185.2882 189.9109,248.171581 19.7444,13.277958 31.3264,20.439517 47.5409,29.396292 l 12.7822,7.060842 3.8121,-7.210908 c 2.0967,-3.966 6.0749,-10.562632 8.8405,-14.659183 z M -3530.474,-182.84523 c -11.1049,-1.53638 -25.1088,-9.32336 -32.4321,-18.03411 -11.2493,-13.38053 -15.6438,-29.48951 -11.9224,-43.70319 3.3939,-12.96237 8.7505,-19.91173 19.7339,-25.60146 15.3381,-7.94555 34.6212,-7.31316 49.778,1.63247 10.7164,6.32486 17.6176,14.47063 21.3482,25.19803 4.147,11.92465 3.3908,21.80528 -2.6205,34.2398 -9.1234,18.87212 -25.6864,28.78628 -43.8851,26.26846 z m 13.1188,-21.96273 c 3.9051,-1.14013 10.8516,-7.23453 12.8613,-11.28365 5.9267,-11.94109 3.4616,-24.24801 -6.4141,-32.0231 -6.7273,-5.29635 -12.2364,-7.2328 -20.8074,-7.31387 -5.9584,-0.0564 -7.7465,0.26731 -11.6891,2.11591 -7.5413,3.53598 -11.9044,11.24078 -11.8864,20.98997 0.014,7.35681 2.7641,13.61227 8.513,19.36113 8.5676,8.56755 18.5396,11.331 29.4227,8.15361 z m 171.8896,147.224217 c -0.5161,-0.520221 -19.4507,-16.587236 -42.0769,-35.704478 l -41.1384,-34.758619 -8.6897,-17.11437 c -4.7793,-9.4129 -8.9324,-17.35224 -9.2291,-17.64298 -0.7122,-0.69778 -10.7535,13.72084 -10.4522,15.00866 0.1282,0.54789 4.5118,8.39739 9.7413,17.44336 l 9.5082,16.4472 43.0407,33.99531 43.0407,33.995305 3.5969,-5.361766 c 2.6862,-4.004176 3.3594,-5.60126 2.6585,-6.307622 z m 0.7681,-17.606764 c -0.516,-3.400312 -1.2257,-4.414138 -6.2826,-8.975024 -27.0757,-24.420089 -76.7535,-68.276879 -77.0281,-68.002279 -0.1889,0.18893 1.3703,4.03606 3.4651,8.54918 l 3.8085,8.20567 22.4786,18.9934 c 32.7971,27.712195 53.5334,45.062374 53.8567,45.062374 0.156,0 0.022,-1.724996 -0.2982,-3.833321 z m 110.0856,-44.958833 c 0,-1.52025 -44.7116,-105.43661 -45.8596,-106.58471 -0.3006,-0.30059 -66.2334,-3.47848 -72.7453,-3.50623 l -3.1566,-0.0135 4.8666,6 c 21.4186,26.4067 45.5044,66.32692 55.2454,91.5647 l 2.75,7.12496 28.8291,3.00469 c 15.8559,1.65257 29.1083,3.04913 29.4497,3.10345 0.3414,0.0543 0.6207,-0.25772 0.6207,-0.6934 z"
           id="path6114" />
        <path
           style="fill:#767676;fill-opacity:1;stroke-width:0.827586"
           d="m -3243.7154,125.16486 c -13.0669,-4.0553 -34.5785,-18.2055 -71.4286,-46.985302 -8.5616,-6.686582 -15.9522,-12.157432 -16.4235,-12.157432 -0.4713,0 0.069,1.582759 1.2002,3.517242 5.7927,9.904841 5.9652,10.466011 5.9138,19.241379 -0.053,9.045426 -2.2355,20.163573 -4.5092,22.971513 l -1.3735,1.69612 -3.9472,-1.97135 c -9.4957,-4.74235 -23.8929,-18.730117 -32.7375,-31.806302 -6.4248,-9.498621 -16.2181,-30.715374 -25.6905,-55.656936 -1.9465,-5.125283 -3.6212,-9.221835 -3.7217,-9.103448 -0.1005,0.118377 0.5917,10.701989 1.5382,23.519131 1.867,25.283479 1.7219,27.061482 -2.2899,28.068397 -1.5808,0.396762 -7.8692,-2.101862 -26.304,-10.451677 -68.1679,-30.87576 -96.2743,-44.246177 -97.1398,-46.2101302 -0.3226,-0.7321489 -1.4234,-22.0001468 -2.4462,-47.2622158 l -1.8597,-45.931035 -8.149,-7.372999 c -21.8877,-19.803175 -47.3366,-47.321075 -63.8953,-69.089915 -46.4515,-61.06746 -76.8064,-133.00999 -82.9501,-196.59584 l -0.9553,-9.88633 2.3131,-1.98966 c 2.2544,-1.93909 2.5672,-1.97578 12.3086,-1.44381 56.9328,3.10905 111.0477,15.14136 163.9264,36.44857 11.323,4.56254 40.8828,19.35299 52.9655,26.50167 26.1553,15.47463 49.5809,33.3643 71.3595,54.49593 l 10.9801,10.65383 45.313,2.02392 c 36.5881,1.63422 45.6872,2.26594 47.2567,3.28085 2.2209,1.43612 5.4903,8.21496 18.4976,38.35309 22.0325,51.04944 35.4207,83.10358 35.4207,84.80414 0,2.56519 -2.8969,4.90949 -6.0411,4.88868 -1.4567,-0.01 -17.1909,-1.46291 -34.9649,-3.22949 -23.5052,-2.3362 -33.0463,-2.99708 -34.9931,-2.42385 -2.6702,0.7862 -2.645,0.80706 10.3854,8.59303 57.8819,34.586016 91.1767,61.638171 98.0163,79.638585 1.9501,5.132036 1.9248,6.918778 -0.1267,8.97029 -2.1982,2.198151 -9.4146,2.204193 -24.2754,0.02036 -15.5616,-2.286844 -28.5288,-2.909843 -31.1729,-1.497683 -4.8098,2.568811 -4.1179,3.51706 20.0249,27.443769 23.6875,23.475501 31.2858,31.895777 36.4579,40.401989 4.9185,8.089143 4.0809,10.597085 -3.5392,10.597085 -6.0817,0 -17.5164,-3.263951 -40.5298,-11.568927 -19.7144,-7.114453 -24.8056,-8.373286 -26.885,-6.647545 -1.7104,1.419517 -1.5802,6.26419 0.3138,11.67312 1.5607,4.456891 2.8309,7.444825 12.3852,29.134006 7.0783,16.068447 10.1247,26.003001 10.4535,34.089751 0.3982,9.79258 -0.6171,10.75811 -8.6813,8.25543 z m -160.866,-75.487562 c -0.2529,-1.706896 -1.2356,-14.275862 -2.1838,-27.931034 -0.9482,-13.655173 -1.8752,-25.5724145 -2.06,-26.4827593 -0.236,-1.1623945 -3.2387,-3.0997242 -10.0858,-6.5072197 -19.6028,-9.755528 -58.9577,-34.861523 -82.5896,-52.687142 l -12.0079,-9.057609 0.022,6.815644 c 0.012,3.748602 0.5622,19.477705 1.2228,34.953568 0.6607,15.475862 1.2096,29.7073325 1.2198,31.62548699 l 0.019,3.48756421 9.7242,4.6413683 c 20.1356,9.6108085 95.4615,44.1101715 96.4865,44.1909355 0.3814,0.03004 0.4865,-1.341906 0.2336,-3.048803 z m 46.6204,-14.642979 c 1.4435,-1.739297 3.2336,-9.103962 3.8444,-15.816 0.4031,-4.429672 0.073,-8.178985 -1.3664,-15.5398018 -2.2528,-11.5175505 -1.9255,-12.4472857 3.521,-10.0013546 5.5161,2.4771972 16.0462,9.3148139 31.6224,20.5336144 18.1679,13.085487 25.4361,17.780632 28.4617,18.385738 5.1341,1.026819 4.2126,-2.823815 -5.7508,-24.0306709 -7.3732,-15.6936581 -10.0489,-22.8914071 -9.2671,-24.9287091 0.8732,-2.275606 5.277,-0.958419 19.2628,5.761663 13.0923,6.2907315 22.0265,9.3993853 24.3981,8.4893136 3.3428,-1.2827338 0.9377,-6.4336884 -9.2341,-19.7763566 -3.664,-4.806165 -6.9224,-9.925059 -7.241,-11.375304 -2.0454,-9.312878 5.7804,-15.807758 26.1028,-21.663493 5.2054,-1.499893 8.9948,-3.012919 8.8362,-3.528116 -0.8679,-2.819297 -38.2359,-25.147457 -62.2547,-37.198503 -14.2618,-7.155619 -11.8828,-7.301479 -22.7586,1.395443 -9.2667,7.410133 -8.7137,6.642935 -6.7509,9.36504 1.2676,1.758025 2.1642,5.608502 3.4998,15.029115 l 1.7957,12.665537 -7.8919,11.845283 c -8.5571,12.843691 -9.9892,13.960527 -14.4228,11.247625 -1.2644,-0.773669 -6.3955,-4.661074 -11.4024,-8.638676 l -9.1034,-7.23202 -2.6024,3.001722 c -4.7594,5.489528 -12.708,17.187045 -12.708,18.701553 0,2.176105 6.1569,24.8474071 8.9765,33.0537851 4.0405,11.7600499 5.8858,15.8637019 9.7404,21.6618619 5.7197,8.603661 10.1781,11.621587 12.6927,8.591711 z m -38.3977,-73.053783 c 2.5395,-3.895904 6.6998,-9.693584 9.2451,-12.883713 3.9041,-4.893038 4.4349,-5.943071 3.3935,-6.713338 -0.679,-0.502196 -14.9832,-11.779167 -31.7873,-25.059932 l -30.5528,-24.146843 -11.1489,-19.30143 c -6.1318,-10.61579 -11.2886,-20.47176 -11.4594,-21.90218 -0.2626,-2.19842 1.142,-4.7171 9.0799,-16.28187 5.1647,-7.52462 10.2592,-14.08793 11.321,-14.58513 4.4967,-2.1056 6.4221,-0.6565 45.6557,34.36132 20.7103,18.48495 41.826,37.31889 46.9238,41.8532 l 9.2686,8.244216 8.885,-7.200386 c 10.1436,-8.22043 19.7721,-14.67762 27.715,-18.5866 l 5.4821,-2.69794 -3.6658,-8.77027 c -2.0161,-4.82365 -6.8053,-14.82483 -10.6425,-22.22484 -33.1448,-63.91894 -81.4354,-113.42701 -145.2076,-148.86848 -54.8038,-30.45728 -120.8443,-49.841 -188.5479,-55.34122 -8.3426,-0.67776 -15.5116,-1.23229 -15.931,-1.23229 -1.3035,0 -0.8465,6.82084 1.3099,19.54987 6.602,38.97192 21.6022,80.62275 42.8822,119.07082 44.1724,79.80902 115.6978,148.459626 205.7477,197.478071 l 10.3143,5.614543 3.5511,-6.646055 c 1.9531,-3.655333 5.6288,-9.833611 8.1683,-13.729523 z m -133.7015,-144.817176 c -4.1244,-0.45281 -10.3767,-2.56018 -16.1379,-5.4393 -20.7297,-10.35954 -33.3091,-33.8264 -29.0591,-54.20949 2.7899,-13.38043 9.5962,-22.56788 20.6222,-27.83696 9.3351,-4.46104 15.3221,-5.70702 24.9886,-5.20051 13.9388,0.73036 25.168,5.60208 34.7181,15.06226 7.9339,7.85926 13.6755,20.72114 13.6691,30.62069 -0.011,16.40071 -12.5128,36.85757 -26.5271,43.40545 -4.6528,2.17389 -14.5277,4.36924 -18.136,4.03192 -0.6827,-0.0638 -2.5448,-0.25915 -4.1379,-0.43406 z m 14.6789,-22.77574 c 10.0312,-4.69479 16.445,-18.58532 13.5398,-29.3233 -3.2939,-12.17472 -18.2144,-21.79749 -32.2313,-20.78722 -13.2661,0.95617 -21.1917,9.69702 -21.2178,23.4002 -0.019,10.23442 6.1357,19.84934 16.1104,25.16577 8.4137,4.48446 16.4086,5.00333 23.7989,1.54455 z m 167.457,154.428295 3.5717,-5.482063 -2.8755,-2.586902 c -1.5815,-1.422795 -20.6587,-17.594624 -42.3936,-35.937411 l -39.5181,-33.350529 -8.8361,-17.69499 -8.8362,-17.695 -4.4629,6.35586 c -7.091,10.09841 -7.4291,7.60041 3.6201,26.75019 l 9.7442,16.88802 43.0977,34.094805 c 23.7037,18.752144 43.147,34.104994 43.2073,34.117449 0.06,0.01241 1.717,-2.444292 3.6814,-5.459429 z m 3.4386,-24.089744 c -0.3619,-3.461081 -0.8504,-3.934733 -40.9655,-39.724141 -22.3295,-19.9217 -41.2845,-36.70815 -42.122,-37.3032 -1.4781,-1.05006 -0.036,2.61923 5.5351,14.07951 1.0449,2.14947 7.4422,8.08949 21.3912,19.86207 37.1867,31.384454 56.113,47.13145 56.3206,46.859695 0.1138,-0.149098 0.042,-1.847363 -0.1594,-3.773934 z m 109.8738,-45.013371 c 0,-1.70471 -44.6467,-105.23395 -45.9393,-106.52653 -0.3408,-0.34078 -63.7088,-3.37034 -71.4242,-3.41472 l -4.398,-0.0253 4.8496,6 c 22.2095,27.47773 46.4115,67.87753 55.6507,92.89655 1.7832,4.82872 2.4796,5.83555 4.183,6.04804 1.6926,0.21114 52.7304,5.54281 56.0437,5.85461 0.569,0.0536 1.0345,-0.32115 1.0345,-0.83266 z"
           id="path6112" />
        <path
           style="fill:#606060;fill-opacity:1;stroke-width:0.827586"
           d="m -3243.3016,125.30307 c -12.7209,-4.06527 -34.5316,-18.14182 -65.3793,-42.195683 -20.6173,-16.076582 -21.9619,-17.085261 -22.7762,-17.085261 -0.3951,0 1.1719,3.631035 3.4823,8.068966 l 4.2007,8.068965 -0.4888,7.862069 c -0.5291,8.510144 -3.2151,20.393124 -5.0168,22.194874 -3.2795,3.2795 -23.1275,-12.705364 -34.176,-27.524156 -8.4178,-11.290304 -14.3571,-23.363794 -26.3739,-53.613022 -3.5662,-8.976885 -6.5663,-16.238954 -6.6669,-16.137931 -0.1007,0.101024 0.596,10.691628 1.5482,23.534673 1.8722,25.251866 1.7327,27.02511 -2.205,28.013405 -2.1009,0.527272 -15.8855,-5.516938 -80.5734,-35.329416 -31.8094,-14.659878 -40.8609,-19.142971 -42.4037,-21.002011 -0.9041,-1.089302 -1.5378,-11.3479945 -2.9378,-47.552301 l -1.785,-46.163363 -3.62,-3.210373 c -42.4081,-37.609125 -75.8655,-78.173515 -101.8163,-123.443965 -27.3456,-47.70379 -44.8257,-99.2244 -49.5501,-146.04378 -1.4261,-14.13169 -1.2009,-14.29129 18.4342,-13.06831 54.0695,3.36773 107.9435,15.49406 157.0004,35.33874 16.2861,6.58811 42.3238,19.63216 57.5172,28.81424 27.3614,16.53574 47.6546,32.25651 70.9558,54.96795 l 8.8868,8.6619 45.3201,1.99238 c 35.9506,1.58049 45.7157,2.24487 47.2338,3.21367 2.4566,1.56768 5.3708,7.88076 27.8297,60.28783 29.7059,69.31756 27.5355,63.42677 24.4112,66.25417 -2.1601,1.95487 -2.2971,1.94814 -41.327,-2.03101 -24.7749,-2.52582 -31.5163,-2.97422 -33.4231,-2.22309 -2.3495,0.92549 -2.1459,1.08528 12.4138,9.74472 56.2784,33.471912 91.7063,62.61978 96.7485,79.598614 1.5863,5.341796 1.5516,5.986436 -0.4289,7.966941 -2.1834,2.183445 -8.2762,2.186027 -23.7253,0.0101 -16.6696,-2.347845 -27.4435,-2.941059 -31.1569,-1.715495 -6.2581,2.065349 -4.0805,5.224378 18.2283,26.4432498 21.5525,20.4995262 36.7897,37.9614292 39.6936,45.4891952 1.9095,4.950008 0.9667,6.249327 -4.7801,6.587619 -5.9843,0.352271 -14.0958,-1.88088 -39.2251,-10.798965 -27.5098,-9.762869 -30.2069,-10.044075 -30.2069,-3.14933 0,4.570659 1.4438,8.571451 10.258,28.424127 11.9518,26.919924 15.2463,38.125934 13.9147,47.330204 -0.5253,3.63102 -0.8513,4.15869 -2.6615,4.30736 -1.1346,0.0932 -3.5526,-0.30666 -5.3733,-0.8885 z m -161.2509,-76.039565 c -0.2603,-1.934482 -1.3106,-15.190676 -2.334,-29.458212 l -1.8608,-25.9409718 -9.1392,-4.5641462 c -21.656,-10.815054 -59.7704,-35.19461 -85.448,-54.656144 -5.556,-4.211015 -10.214,-7.656389 -10.351,-7.656389 -0.348,0 2.593,75.5281579 2.9819,76.5800779 0.1741,0.4707642 9.0176,4.9152663 19.6524,9.8766621 30.1982,14.088323 85.4654,39.272732 86.2574,39.306183 0.393,0.01663 0.5016,-1.552577 0.2413,-3.48706 z m 47.0504,-14.997012 c 0.7072,-1.079388 1.8769,-5.082836 2.5992,-8.896552 1.473,-7.777606 1.1995,-14.254353 -1.0426,-24.688188 -1.8879,-8.7853077 -1.2699,-9.5277684 5.2692,-6.3309849 5.4633,2.6708193 17.256,10.4677408 33.3057,22.0205219 20.8057,14.976165 26.9145,18.368946 28.4884,15.822273 1.0003,-1.61837 -1.2344,-7.671972 -9.0339,-24.4726927 -7.8799,-16.9740416 -9.4541,-21.2212223 -8.8702,-23.9321303 0.5486,-2.546896 5.0139,-1.197211 19.9963,6.044036 17.8982,8.6505356 24.8677,10.28431492 24.8677,5.8293935 0,-2.6315338 -2.0835,-6.2091645 -9.1905,-15.7810675 -6.6606,-8.970704 -9.0187,-13.329485 -9.0133,-16.659981 0,-2.091418 2.7713,-7.058773 4.8603,-8.722494 3.2805,-2.612657 11.4682,-6.172213 20.482,-8.904406 10.5951,-3.211531 10.6356,-3.229415 9.9221,-4.383732 -2.4302,-3.932301 -50.4244,-31.945275 -69.7239,-40.696064 l -5.4631,-2.477095 -6.7299,5.318289 c -3.7014,2.925071 -7.812,6.21005 -9.1345,7.299965 l -2.4047,1.981663 1.7093,2.416577 c 1.2623,1.784656 2.1596,5.623175 3.4316,14.679194 1.6121,11.478547 1.6354,12.431032 0.3639,14.896552 -2.1569,4.182373 -12.7623,19.908207 -14.1945,21.047727 -2.9686,2.362097 -5.5922,1.201076 -16.3928,-7.254471 -12.2058,-9.555733 -10.2348,-9.685416 -18.4477,1.213771 -8.6301,11.452949 -8.3694,10.288833 -5.1562,23.024185 6.2806,24.8935697 13.0252,41.137846 20.3465,49.004673 4.6971,5.047035 7.1047,5.731035 9.1556,2.601038 z m -48.4808,-55.610459 c 2.7139,-6.135145 9.8833,-17.53296 16.8589,-26.802075 5.2561,-6.984091 6.2885,-8.81784 5.3588,-9.517241 -0.6335,-0.476475 -14.9095,-11.747702 -31.7246,-25.04717 l -30.5729,-24.180858 -11.3781,-19.76556 c -6.3423,-11.01765 -11.378,-20.68437 -11.378,-21.84159 0,-1.14181 0.9802,-3.52455 2.1783,-5.29496 10.7542,-15.89164 16.4697,-23.74566 18.0187,-24.76064 4.3508,-2.85076 6.0046,-1.5945 52.3257,39.7486 23.969,21.3931 45.0197,40.139526 46.7794,41.658718 l 3.1994,2.762168 7.6458,-6.188896 c 11.4383,-9.2588 19.5746,-14.86585 27.3452,-18.84485 l 6.9815,-3.57487 -3.2422,-7.79028 c -13.2243,-31.77469 -35.0101,-66.39179 -59.631,-94.75239 -64.7718,-74.60974 -167.563,-122.58614 -284.0836,-132.59216 -19.5128,-1.67564 -17.7931,-1.91504 -17.7931,2.47699 0,4.83121 2.8655,22.42342 5.5298,33.94901 12.147,52.54759 37.7915,106.07815 73.4669,153.35541 39.7584,52.68809 89.2287,96.210277 152.4455,134.116233 9.9678,5.976844 28.9779,16.590199 29.8294,16.653749 0.093,0.0066 0.9206,-1.6884 1.8402,-3.767338 z m -125.6259,-161.833484 c -19.0754,-3.2044 -37.0981,-19.72821 -42.7597,-39.2034 -2.0837,-7.16755 -1.921,-17.69531 0.3839,-24.85054 4.7928,-14.87803 13.2151,-22.40205 30.2132,-26.99081 18.333,-4.94912 42.3887,3.46872 53.2894,18.64757 11.8972,16.56658 11.9143,35.29107 0.048,53.03209 -6.5288,9.76135 -14.8198,16.27741 -23.5025,18.47117 -5.2231,1.31965 -12.8438,1.70512 -17.6727,0.89392 z m 15.0579,-21.75055 c 5.667,-2.43232 9.4524,-6.07387 12.2761,-11.80974 2.4437,-4.96387 2.7653,-6.3932 2.7577,-12.25722 -0.01,-7.99954 -1.4601,-11.45801 -7.2317,-17.25208 -10.452,-10.49267 -29.1319,-12.75662 -38.845,-4.70789 -1.678,1.39044 -4.0987,4.66185 -5.3793,7.26981 -1.9637,3.99894 -2.3285,5.77885 -2.3285,11.36242 0,5.96872 0.2789,7.13513 2.8326,11.8449 7.3829,13.61663 23.8313,20.73753 35.9181,15.5498 z m 168.5348,153.88477 c 1.914,-2.937666 3.2595,-5.697972 2.99,-6.134003 -0.2695,-0.436038 -19.314,-16.694143 -42.3211,-36.129128 l -41.8312,-35.336339 -8.8547,-17.67564 -8.8547,-17.67564 -5.1724,7.47636 c -2.8448,4.11199 -5.1616,7.91734 -5.1483,8.45633 0.013,0.53898 4.3891,8.48534 9.7241,17.65857 l 9.7001,16.6786 43.0344,34.000178 c 23.669,18.700089 43.0839,34.005063 43.1442,34.011046 0.06,0.0058 1.6757,-2.392667 3.5896,-5.330334 z m 3.8568,-22.176025 c -0.2744,-1.024138 -0.5041,-2.657445 -0.5103,-3.629578 -0.01,-1.21363 -3.4475,-4.852129 -10.9768,-11.610952 -27.0315,-24.265375 -71.4746,-63.726985 -72.4157,-64.298785 -1.0798,-0.65607 3.452,9.83794 6.6464,15.39066 1.2324,2.14218 14.1128,13.53993 39.0796,34.58113 20.4828,17.262171 37.5642,31.39563 37.9586,31.40768 0.3945,0.01208 0.4927,-0.816017 0.2182,-1.840155 z m 106.8947,-54.206895 c -6.9983,-16.75054 -33.7217,-78.8396 -38.2742,-88.92638 l -4.7448,-10.5126 -3.44,-0.41648 c -3.6356,-0.44017 -62.9744,-3.00207 -69.0967,-2.98319 l -3.5876,0.0111 3.5002,4.34482 c 11.6729,14.48987 24.0161,32.30582 34.5451,49.86207 7.5133,12.52785 19.5482,36.51041 22.5698,44.97623 1.031,2.88864 2.2771,5.39874 2.7691,5.57798 0.8228,0.29975 53.2061,5.818 57.3227,6.0386 1.7431,0.0934 1.6874,-0.19083 -1.5636,-7.97212 z"
           id="path6110" />
        <path
           style="fill:#494949;fill-opacity:1;stroke-width:0.827586"
           d="m -3243.0433,125.21938 c -2.1339,-0.58769 -7.7201,-3.10464 -12.4138,-5.59324 -15.0549,-7.98197 -26.2562,-15.69466 -53.4195,-36.782066 -19.7831,-15.358072 -22.4042,-17.256505 -23.0013,-16.659402 -0.2127,0.212723 1.2747,3.302251 3.3054,6.865623 2.0396,3.579169 3.9449,8.164436 4.2569,10.244971 1.0117,6.746516 -2.0686,24.713734 -4.9009,28.587204 -1.0996,1.50381 -1.2788,1.47887 -5.3699,-0.74779 -13.9705,-7.60369 -31.039,-26.627588 -40.1045,-44.698761 -2.6169,-5.216574 -14.2499,-32.782833 -18.6845,-44.275862 -1.8441,-4.779311 -3.3696,-8.317242 -3.39,-7.862069 -0.02,0.455172 0.7004,10.324138 1.6017,21.931034 0.9013,11.606897 1.6425,22.500001 1.647,24.206897 0.011,4.081838 -2.5254,6.782831 -5.6497,6.016842 -3.3795,-0.828547 -98.2558,-44.069033 -113.3871,-51.67695 -3.5347,-1.777167 -6.9242,-3.830731 -7.5323,-4.563476 -0.8426,-1.0152909 -1.5303,-12.3135558 -2.8904,-47.48688 l -1.7846,-46.154616 -4.071,-3.688146 c -41.3863,-37.494513 -69.6889,-70.915733 -94.9331,-112.101953 -30.619,-49.95524 -51.049,-107.35899 -56.0572,-157.50804 -1.3381,-13.39907 -0.9257,-13.6871 17.967,-12.54843 74.7554,4.50556 149.6026,26.18049 208.7604,60.45477 28.8293,16.70282 50.9086,33.49532 77.7788,59.15489 l 8.704,8.31182 45.1034,1.90834 c 35.3148,1.49417 45.5125,2.16725 46.9881,3.10137 1.0366,0.65617 3.3968,4.43641 5.245,8.40054 7.7685,16.66268 48.7324,113.17674 48.7324,114.81726 0,2.91197 -2.5542,4.53131 -7.0996,4.50112 -2.24,-0.0149 -18.2245,-1.46383 -35.5211,-3.21988 -25.4054,-2.57934 -31.9053,-3.00793 -33.8272,-2.23054 -2.342,0.94737 -2.1286,1.11304 13.7404,10.6688 51.7611,31.168791 84.1044,56.68046 92.6458,73.077045 4.2603,8.17848 4.6254,10.553562 2.0221,13.156833 -2.6554,2.655451 -7.0551,2.731333 -23.2707,0.401363 -14.9244,-2.14445 -29.0752,-2.907335 -32.069,-1.728885 -3.2998,1.29888 -2.9668,4.175718 1.0159,8.7773789 1.8105,2.0918235 10.2829,10.54894362 18.8276,18.7935975 24.116,23.2691096 37.8726,39.3683756 39.5469,46.2813356 0.9117,3.763879 -1.431,5.154331 -7.8252,4.644588 -6.8037,-0.5424 -15.0788,-2.989109 -38.7999,-11.47205 -25.6129,-9.159426 -28.2825,-9.326168 -28.2825,-1.766516 0,3.833462 3.2494,12.717923 9.9214,27.126745 10.5858,22.861234 14.3521,34.663735 14.2373,44.615125 -0.097,8.3643 -0.5059,8.71867 -7.7625,6.72006 z m -161.7324,-79.26622 c -0.285,-3.755172 -1.3113,-17.017655 -2.2807,-29.472182 l -1.7624,-22.6446044 -11.5862,-5.9650506 c -22.9101,-11.795024 -59.8175,-35.622166 -85.0624,-54.915709 -4.4533,-3.403423 -8.2061,-6.045426 -8.3395,-5.871112 -0.1335,0.174315 0.4141,16.516933 1.2168,36.316933 0.8028,19.800001 1.4831,37.01945455 1.512,38.2654601 0.045,1.9507117 0.8285,2.6548635 5.6386,5.0683531 10.4387,5.2376608 99.4902,46.0000058 100.5565,46.0286818 0.3441,0.0093 0.3923,-3.055597 0.1073,-6.81077 z m 46.3688,-10.473467 c 2.0698,-2.287084 3.7345,-8.521217 4.3243,-16.193438 0.403,-5.242891 0.1054,-8.731854 -1.3673,-16.0295502 -1.3222,-6.552025 -1.6221,-9.5882567 -1.0079,-10.2024829 1.9859,-1.9859256 13.1607,4.8086318 42.2815,25.7083621 15.8677,11.388082 20.42,14.156094 23.2815,14.156094 4.1505,0 3.349,-2.850919 -7.2124,-25.6551732 -5.9213,-12.7853381 -7.886,-17.8831198 -7.9741,-20.6896558 -0.1159,-3.694518 -0.096,-3.723178 2.564,-3.60307 1.4745,0.06662 8.9228,3.132091 16.5517,6.812235 28.1969,13.6018425 31.6898,11.10521348 15.2235,-10.881179 -6.8751,-9.1799 -8.9985,-13.77912 -8.0699,-17.479216 0.843,-3.358461 5.3325,-7.856003 10.3912,-10.409595 4.194,-2.117139 18.6653,-6.964552 22.8089,-7.640218 0.9103,-0.148444 1.6551,-0.823423 1.6551,-1.49995 0,-2.833937 -35.8839,-24.606803 -62.2147,-37.749303 l -12.5596,-6.268853 -6.4749,4.974335 c -3.5612,2.735892 -7.7783,6.085208 -9.3714,7.442938 -2.8697,2.445674 -2.882,2.484728 -1.3263,4.205884 1.1546,1.277429 2.0805,5.079873 3.498,14.364919 1.0603,6.945194 1.9364,12.878648 1.947,13.185451 0.029,0.846207 -14.9667,23.353258 -16.0239,24.050193 -2.743,1.808069 -5.5817,0.436618 -15.819,-7.642502 -5.7676,-4.551724 -10.734,-8.274555 -11.0364,-8.272957 -0.6804,0.0033 -11.2669,14.227233 -13.6586,18.351178 l -1.7503,3.018058 2.3748,9.796684 c 3.4115,14.0731037 9.0816,31.053112 13.036,39.038252 3.2502,6.563395 11.5128,16.689476 13.6179,16.689476 0.4863,0 1.5264,-0.709614 2.3113,-1.576916 z m -45.5161,-60.353248 c 3.9036,-7.772665 10.5131,-17.898761 17.2755,-26.467159 2.3566,-2.985939 3.8093,-5.528085 3.39,-5.932419 -0.4036,-0.38914 -14.6544,-11.693843 -31.6685,-25.121578 l -30.9347,-24.414059 -11.4531,-19.72249 c -6.5145,-11.21829 -11.4642,-20.64783 -11.479,-21.86849 -0.029,-2.42092 17.2718,-28.25466 20.2131,-30.18191 2.4105,-1.57937 7.0159,-0.24178 11.0201,3.20065 2.3801,2.04615 80.8841,71.85527 89.3123,79.420274 l 1.8128,1.627191 8.3024,-6.678155 c 10.1292,-8.1477 18.9522,-14.15733 27.4541,-18.69998 l 6.4183,-3.42941 -3.1103,-7.41839 c -7.5547,-18.01852 -20.7252,-41.99973 -33.3902,-60.79771 -59.5651,-88.40927 -160.1269,-146.49366 -283.7771,-163.90931 -11.5817,-1.63124 -36.6954,-4.06191 -42.16,-4.08053 l -2.982,-0.0102 0.3633,4.34483 c 1.565,18.7184 8.6763,48.64299 17.3559,73.03448 35.3643,99.38096 109.9844,185.559753 215.0033,248.307448 8.717,5.208306 28.3386,16.035368 29.1641,16.092588 0.1093,0.0074 1.8506,-3.275504 3.8697,-7.295711 z m -126.632,-158.218195 c -10.9135,-1.56684 -20.069,-6.46426 -29.3474,-15.69843 -10.8535,-10.80179 -15.7616,-21.75049 -15.7992,-35.24414 -0.035,-12.3834 5.3607,-25.34568 12.8914,-30.97201 8.7223,-6.51658 20.772,-10.77541 30.4392,-10.7584 15.793,0.0278 32.364,8.06837 41.7118,20.23933 6.9064,8.99228 10.2459,21.11583 8.6928,31.55798 -2.349,15.79336 -13.1812,31.38022 -26.0893,37.54069 -6.6324,3.16533 -15.0206,4.40869 -22.4993,3.33498 z m 14.6997,-22.12622 c 5.5288,-2.44566 9.2842,-6.21087 11.9479,-11.97901 3.2767,-7.09545 3.4275,-16.4226 0.3626,-22.42235 -6.1938,-12.12465 -23.1719,-19.05363 -36.9259,-15.06997 -12.5098,3.62327 -18.7981,19.67214 -12.9172,32.96693 1.9599,4.43077 9.874,12.80231 14.25,15.07376 7.555,3.92154 16.42,4.46626 23.2826,1.43064 z m 167.8659,154.133858 c 2.8252,-4.336271 3.3143,-5.613766 2.5171,-6.574354 -0.5443,-0.655746 -19.435,-16.761385 -41.9795,-35.790323 l -40.9899,-34.598051 -9.0646,-18.08953 c -4.9855,-9.94924 -9.2347,-17.91938 -9.4426,-17.71141 -0.208,0.20796 -2.7468,3.81226 -5.6419,8.00955 l -5.2638,7.63144 10.0351,17.28279 10.0352,17.28279 43.0189,33.969597 c 23.6604,18.68328 43.0752,33.9696 43.1441,33.9696 0.069,0 1.7033,-2.421939 3.6319,-5.382099 z m 3.6953,-23.376522 c -0.2837,-1.706897 -0.6398,-3.512971 -0.7913,-4.013504 -0.3448,-1.13851 -83.182,-75.089622 -83.6209,-74.650722 -0.1764,0.17633 1.658,4.40136 4.0764,9.38896 l 4.397,9.06837 32.6036,27.42626 c 17.932,15.084443 34.8381,29.314655 37.5691,31.622694 2.731,2.308038 5.2617,4.211048 5.6237,4.228907 0.362,0.01788 0.4261,-1.364069 0.1424,-3.070965 z m 109.7529,-46.758626 c -1.5575,-4.05111 -38.209,-89.27465 -41.731,-97.03448 -2.8031,-6.17602 -4.2414,-8.42296 -5.6686,-8.85559 -1.7518,-0.53099 -61.1872,-3.19642 -70.4657,-3.16008 l -4.0014,0.0156 3.4945,4.34483 c 22.6461,28.15607 49.4585,72.77256 57.1944,95.17241 1.4977,4.33697 2.2999,5.59956 3.5871,5.64595 0.9118,0.0329 13.5751,1.29367 28.1407,2.80179 33.377,3.45588 30.3249,3.34504 29.45,1.0695 z"
           id="path6108" />
        <path
           style="fill:#333333;fill-opacity:1;stroke-width:0.827586"
           d="m -3243.8521,124.84753 c -12.3603,-3.95291 -34.024,-17.96037 -64.7144,-41.843508 -19.552,-15.215231 -22.6761,-17.454696 -23.3747,-16.756064 -0.198,0.197967 1.0913,2.843429 2.8651,5.8788 4.8881,8.364869 5.4887,11.358041 4.3353,21.607871 -1.4152,12.577191 -3.4486,18.632321 -6.257,18.632321 -3.3068,0 -12.2629,-6.6388 -21.6251,-16.029761 -15.8888,-15.937581 -21.1574,-25.35279 -38.4981,-68.797822 -3.0886,-7.737931 -5.6336,-13.510345 -5.6556,-12.827586 -0.022,0.682758 0.7002,10.737931 1.6049,22.344828 0.9047,11.606896 1.649,22.299285 1.654,23.760861 0.012,3.516678 -2.7651,6.185958 -5.7133,5.491026 -6.0912,-1.435829 -118.3002,-53.433319 -120.166,-55.684793 -1.7981,-2.169732 -2.0737,-6.0712465 -3.7727,-53.411967 l -1.4547,-40.534519 -4.5346,-4.155137 c -25.0702,-22.97273 -38.4162,-36.70573 -54.7066,-56.29306 -53.4328,-64.24674 -88.1307,-140.57237 -95.5305,-210.14012 -1.2342,-11.60305 -0.8633,-14.12146 2.2543,-15.30676 3.2341,-1.22963 32.7864,0.82447 53.5629,3.72303 72.5031,10.11499 140.2408,35.06686 193.6566,71.33532 20.4263,13.86911 35.4859,26.13624 53.2097,43.34304 l 9.7613,9.47666 44.8593,1.91393 c 27.5442,1.17519 45.658,2.27656 46.9283,2.85339 1.3448,0.61059 3.0469,2.96731 4.8627,6.73254 7.9394,16.46376 49.758,114.73366 49.758,116.92674 0,2.47024 -2.6848,4.31514 -6.272,4.30991 -1.7849,-0.002 -17.7427,-1.46623 -35.4618,-3.25249 -26.9398,-2.7158 -32.6262,-3.08059 -34.7177,-2.22717 l -2.5012,1.02058 13.2005,7.89391 c 54.5624,32.628324 87.9675,58.938995 95.9252,75.552929 4.0007,8.352405 4.231,9.998565 1.7469,12.482723 -2.5979,2.597826 -6.424,2.658604 -22.4026,0.355887 -14.7676,-2.128196 -29.8612,-2.919286 -32.8966,-1.724193 -3.2186,1.267282 -2.9457,4.098173 0.8276,8.5850893 1.7069,2.02968 10.3319,10.72885253 19.1666,19.3314871 25.5242,24.8536056 36.8234,38.0223896 38.8115,45.2333136 2.4579,8.914957 -8.0063,7.51291 -45.9697,-6.159261 -21.456,-7.727147 -26.2606,-8.535244 -28.1087,-4.727578 -1.5204,3.132613 0.1737,8.787319 7.7314,25.806116 14.0109,31.550347 16.0241,37.712837 16.0241,49.049647 0,8.63176 -0.2721,8.83322 -8.4126,6.22984 z M -3404.273,52.160057 c 0,-0.341379 -0.9316,-12.724138 -2.0631,-27.517242 -1.1314,-14.7931033 -2.0658,-27.8275862 -2.0763,-28.9655172 -0.017,-1.8005628 -1.0376,-2.540607 -7.8699,-5.7045598 -16.6327,-7.702411 -60.75,-35.723248 -85.4877,-54.297005 -6.5034,-4.882941 -11.9459,-8.742232 -12.0945,-8.576185 -0.1485,0.166039 0.4135,17.060508 1.2489,37.543267 0.8355,20.482759 1.535,37.7027422 1.5545,38.2666263 0.046,1.3286731 6.5545,4.5557214 42.6561,21.1492967 16.3862,7.531697 37.0551,17.039446 45.931,21.128334 15.8716,7.311633 18.2127,8.208546 18.201,6.972985 z m 45.7151,-16.137931 c 1.9068,-1.476505 3.9397,-9.045385 4.5011,-16.758621 0.3629,-4.985057 0.035,-8.952298 -1.3273,-16.0585658 -1.4262,-7.4390732 -1.5891,-9.5740304 -0.7691,-10.0808028 2.4086,-1.4886125 11.4922,3.9627641 37.0104,22.2112716 20.6818,14.789893 25.3959,17.69103 28.255,17.388439 1.8257,-0.193208 2.0487,-0.573798 1.8968,-3.236201 -0.095,-1.672246 -2.627,-8.312707 -5.6791,-14.896552 -10.0298,-21.6356197 -11.4107,-25.058558 -11.4699,-28.431038 -0.057,-3.255815 -0.013,-3.306711 2.7083,-3.089884 1.5216,0.121258 8.225,2.863002 14.8966,6.092773 6.6715,3.2297624 14.1435,6.5753873 16.6045,7.4347031 12.9329,4.516047 13.3243,-0.2708358 1.331,-16.2786211 -4.2739,-5.704535 -8.2112,-11.706215 -8.7494,-13.337065 -2.9946,-9.073787 6.6972,-16.883843 27.2981,-21.997937 4.2926,-1.065616 7.491,-2.288342 7.4972,-2.866129 0.033,-3.101529 -38.6405,-26.448787 -65.6923,-39.658445 l -9.5877,-4.681751 -6.0098,4.653307 c -3.3054,2.559319 -7.4988,5.927669 -9.3187,7.485219 -3.2579,2.788279 -3.2852,2.858061 -1.7722,4.529934 2.1186,2.340985 5.8645,26.847932 4.4979,29.426872 -1.6314,3.078836 -12.4119,19.055214 -14.1545,20.976679 -3.0617,3.375948 -5.3221,2.501984 -16.5884,-6.413793 -5.7517,-4.551724 -10.7666,-8.275862 -11.1441,-8.275862 -0.5635,0 -13.6156,17.355443 -15.2799,20.317779 -0.5518,0.982229 4.752,21.5667151 8.6253,33.4753249 4.034,12.4024801 9.3115,22.5269711 14.6877,28.1767121 4.9584,5.210772 5.6077,5.537619 7.7325,3.892254 z m -46.0337,-59.586208 c 3.6487,-7.281294 10.3739,-17.734047 17.0664,-26.525719 4.1558,-5.459247 4.7852,-6.704491 3.8386,-7.594254 -0.6227,-0.585351 -14.7253,-11.782593 -31.3391,-24.882761 -16.6138,-13.100169 -30.4818,-24.223364 -30.8178,-24.718224 -4.5268,-6.66701 -22.9753,-39.82612 -22.9753,-41.29538 0,-2.07117 15.9694,-26.06317 19.47,-29.25119 1.6225,-1.47761 2.469,-1.66992 4.9187,-1.11743 1.6275,0.36704 3.7885,1.23377 4.8024,1.92606 1.0138,0.69229 22.3063,19.53651 47.3165,41.87604 25.0102,22.33954 45.6792,40.614535 45.931,40.611108 0.2519,-0.0033 4.1821,-3.042595 8.7338,-6.753708 9.6674,-7.88206 22.3182,-16.37224 28.8537,-19.36428 l 4.6026,-2.10713 -1.6718,-4.24116 c -14.7497,-37.42051 -42.7454,-80.13782 -72.75,-111.00592 -61.3706,-63.13673 -146.7927,-103.66352 -247.9321,-117.62637 -11.182,-1.54373 -34.0767,-3.69957 -39.4314,-3.71298 l -3.9152,-0.01 0.4572,3.93104 c 4.5691,39.28322 17.0933,79.6317 37.0556,119.37931 40.4714,80.58416 105.6231,148.375654 193.2377,201.06739 10.1208,6.086673 30.3805,17.334025 31.3454,17.401606 0.108,0.0074 1.5494,-2.686238 3.2031,-5.986238 z m -132.6441,-161.152028 c -8.7776,-2.59258 -15.0531,-6.49513 -22.6325,-14.07449 -11.0847,-11.08476 -15.7288,-21.74541 -15.6879,-36.01223 0.025,-8.60642 1.9699,-15.4025 6.6088,-23.08904 4.2528,-7.04674 14.3749,-13.6968 24.8181,-16.3051 6.3481,-1.58549 19.9033,-1.34307 26.069,0.4662 17.1995,5.04705 31.5066,19.01193 35.2158,34.37358 5.1617,21.377 -9.4429,48.21868 -29.7168,54.61618 -6.7473,2.12913 -17.5135,2.13999 -24.6745,0.0249 z m 21.2951,-20.47131 c 5.4993,-2.44333 8.855,-5.68831 11.7007,-11.31472 7.1925,-14.22062 1.9806,-28.36306 -13.2216,-35.87639 -6.0272,-2.9788 -6.6738,-3.11659 -14.6248,-3.11659 -6.9947,0 -8.862,0.29059 -11.7319,1.82578 -9.8806,5.2854 -14.5229,18.96113 -10.2652,30.24042 3.1202,8.26597 11.9131,16.38119 20.9496,19.33493 4.5492,1.48699 12.5273,0.97962 17.1932,-1.09343 z m 168.131,153.868728 3.7349,-5.616687 -42.166,-35.555727 -42.166,-35.555734 -9.0913,-18.10792 c -5.0001,-9.95935 -9.3921,-17.78004 -9.7599,-17.37931 -0.3679,0.40073 -2.9215,4.007 -5.6747,8.01393 l -5.006,7.28532 9.1601,15.8871 c 5.038,8.73789 9.7589,16.70102 10.4909,17.69582 1.0207,1.38723 85.8617,68.949887 86.583,68.949887 0.088,0 1.8409,-2.527506 3.895,-5.616679 z m 3.5217,-23.555735 c -0.3191,-1.934483 -1.0035,-4.041186 -1.521,-4.681564 -1.3752,-1.7017 -81.6788,-73.265509 -82.5995,-73.609759 -0.8276,-0.30949 -0.1221,1.48934 4.5414,11.57806 l 2.922,6.32122 34.201,28.79552 c 18.8106,15.837543 35.8769,30.204126 37.9252,31.925753 2.0482,1.721619 4.0362,3.143222 4.4175,3.159112 0.3814,0.01589 0.4324,-1.553859 0.1134,-3.488342 z m 108.9158,-48.413793 c -2.4332,-6.11763 -33.5927,-78.74184 -39.1471,-91.24138 -2.7306,-6.14483 -5.3892,-11.58881 -5.908,-12.09773 -0.9403,-0.9223 -75.8675,-4.50618 -75.8165,-3.62641 0.013,0.22759 3.377,4.69655 7.4751,9.93104 21.095,26.94441 45.4048,68.03492 53.0006,89.5862 1.5284,4.33662 2.3408,5.59812 3.6314,5.63945 0.9144,0.0293 13.3936,1.2884 27.7316,2.79804 14.3379,1.50964 27.0876,2.78913 28.3327,2.84332 l 2.2638,0.0985 z"
           id="path6106" />
      </g>
      <path
         style="fill:#cccccc;stroke-width:0.570597"
         d="m -516.12907,438.84034 c -12.76088,-7.68039 -22.99889,-20.5976 -24.70478,-31.16984 -0.49582,-3.07292 -0.61195,-3.04348 6.87088,-1.74249 12.33636,2.14483 22.13071,7.07949 29.08529,14.65396 2.53292,2.75869 6.69697,8.98934 6.64802,9.94742 -0.0139,0.27157 -0.98284,1.05394 -2.15325,1.73861 -2.44827,1.43217 -1.67091,1.78806 -8.9833,-4.11272 -2.6993,-2.17821 -5.03337,-3.96039 -5.18683,-3.96039 -0.15346,0 -0.9862,0.84978 -1.85054,1.88839 l -1.57153,1.8884 1.57252,2.61826 c 0.86488,1.44004 2.78694,3.47861 4.27126,4.53017 1.48431,1.05155 3.08858,2.19095 3.56503,2.532 0.74651,0.53434 0.69053,0.89309 -0.40489,2.59473 -0.69916,1.08607 -1.3317,1.97466 -1.40565,1.97466 -0.0739,0 -2.66245,-1.52152 -5.75223,-3.38116 z m -4.5977,-15.68206 c 1.59955,-1.30991 1.93289,-1.97899 1.93289,-3.87973 0,-6.62368 -11.56406,-7.54999 -11.76841,-0.94268 -0.10006,3.23533 3.12633,6.3764 6.57101,6.39723 0.73239,0.005 2.20142,-0.70424 3.26451,-1.57482 z"
         id="path6175" />
      <path
         style="fill:#27b8e7;fill-opacity:1;stroke-width:0.201735"
         d="m -525.59549,421.65768 c -0.34985,-0.14551 -0.93783,-0.57953 -1.30662,-0.96451 -2.04319,-2.13281 -0.0828,-5.03387 2.82453,-4.17981 1.95224,0.5735 2.91214,1.9332 2.42241,3.43135 -0.50786,1.55358 -2.37347,2.36462 -3.94032,1.71297 z"
         id="path8505" />
      <path
         style="fill:#ff0000;fill-opacity:1;stroke-width:0.403471"
         d="m -516.30368,447.40977 c -3.22747,-1.3809 -5.92638,-2.51072 -5.9976,-2.51072 -0.0712,0 -0.12947,-1.72511 -0.12947,-3.83355 v -3.83355 l 4.55953,2.79204 c 2.50774,1.53563 5.16525,3.022 5.90556,3.30305 0.77164,0.29295 1.4243,0.86101 1.52946,1.33121 0.33051,1.47783 0.51317,5.26224 0.25399,5.26224 -0.13935,0 -2.89401,-1.12982 -6.12147,-2.51072 z"
         id="path8698" />
      <path
         style="fill:#ff0000;fill-opacity:1;stroke-width:0.403471"
         d="m -494.09673,430.6458 c -1.73185,-0.22301 -1.85526,-0.33279 -3.29996,-2.93553 -0.82546,-1.48712 -2.43005,-3.96404 -3.56574,-5.50428 l -2.06491,-2.80042 3.6791,0.006 c 2.02351,0.003 3.9139,0.14259 4.20087,0.30964 0.40333,0.23478 5.58916,10.57572 5.58916,11.14521 0,0.17448 -2.36252,0.0597 -4.53852,-0.22053 z"
         id="path8737" />
      <path
         style="fill:#feb301;fill-opacity:1;stroke-width:0.403471"
         d="m -505.51039,446.94058 c -0.44691,-0.80417 -1.10502,-2.36632 -1.46247,-3.47142 -0.61915,-1.9142 -0.60976,-2.05607 0.19831,-2.99763 l 0.84822,-0.98832 1.18995,0.77659 c 1.6472,1.07502 2.17575,0.97697 3.29911,-0.61203 0.8552,-1.20967 0.92564,-1.59097 0.57345,-3.10443 -0.36826,-1.58254 -0.32097,-1.77376 0.57122,-2.30954 0.88775,-0.53312 1.13217,-0.51071 2.79809,0.25669 1.00396,0.46247 2.94229,1.4565 4.30741,2.20899 l 2.48202,1.36813 -1.84986,0.62406 c -2.25546,0.76089 -2.64222,2.04123 -1.16849,3.86817 0.51949,0.64401 0.85858,1.24968 0.75355,1.34595 -0.10504,0.0963 -1.01311,-0.16232 -2.01794,-0.57465 -3.24606,-1.332 -3.67707,-0.89027 -2.07687,2.1285 0.5073,0.95703 0.80274,1.8497 0.65651,1.98371 -0.14621,0.13402 -1.64107,-0.64436 -3.32189,-1.72972 -1.68082,-1.08535 -3.3038,-1.97338 -3.60662,-1.97338 -0.38568,0 -0.55058,0.62945 -0.55058,2.10167 0,1.15591 -0.18238,2.20496 -0.40528,2.33123 -0.22291,0.12626 -0.77094,-0.42839 -1.21784,-1.23257 z"
         id="path22237" />
      <path
         style="fill:#ff0000;fill-opacity:1;stroke-width:0.050434"
         d="m -503.72923,439.09604 c -1.66479,-1.17888 -9.25106,-6.66799 -9.66695,-6.9946 -0.25104,-0.19716 -0.39882,-0.40128 -1.10391,-1.52481 -1.10619,-1.76265 -1.36946,-2.22867 -1.37083,-2.42648 -5.5e-4,-0.0993 0.0631,-0.26063 0.1624,-0.4104 0.21192,-0.31978 0.84551,-1.09172 0.89606,-1.09172 0.0983,0 0.33131,0.38238 1.20656,1.97962 0.5166,0.94272 1.00628,1.78266 1.08818,1.86651 0.0819,0.0838 1.95058,1.53872 4.15262,3.23306 5.34284,4.11097 5.84505,4.50264 5.86215,4.57164 0.025,0.10074 -0.68021,1.09627 -0.77615,1.09576 -0.0158,-9e-5 -0.21833,-0.13444 -0.45013,-0.29858 z"
         id="path26005" />
      <path
         style="fill:#ff0000;fill-opacity:1;stroke-width:0.050434"
         d="m -502.93902,436.20679 c -1.21339,-0.9076 -6.47612,-4.96817 -7.50695,-5.79213 -1.10038,-0.87956 -1.18701,-0.97724 -1.59955,-1.8034 -0.19678,-0.39406 -0.34597,-0.72731 -0.33154,-0.74053 0.0145,-0.0132 0.52002,0.37353 1.12353,0.85946 1.90055,1.53023 7.76907,6.32745 8.19326,6.69756 0.45412,0.39622 0.63704,0.68155 0.61189,0.95446 l -0.0165,0.17923 z"
         id="path26044" />
    </g>
  </g>
</svg>
